{"glyphs":{"$":{"x_min":0,"x_max":488,"ha":488,"o":"m 361 483 q 378 508 378 530 q 378 551 363 566 q 348 580 322 585 l 290 384 q 391 338 412 290 q 423 267 423 236 q 423 155 370 100 q 317 46 234 34 l 220 -58 l 214 -64 q 198 -64 180 -59 l 194 32 q 115 32 72 60 q 29 88 29 139 q 29 169 47 189 q 65 209 93 209 q 121 209 134 191 q 122 164 122 140 q 122 115 144 98 q 165 80 202 79 l 237 303 q 149 342 128 369 q 99 404 99 451 q 99 523 152 577 q 204 631 290 635 l 305 726 l 312 732 q 323 732 345 728 l 330 634 q 388 628 424 602 q 461 575 461 542 q 461 508 444 488 q 428 467 404 467 q 380 467 361 483 z m 253 401 l 282 586 q 239 581 212 552 q 185 524 185 479 q 185 434 253 401 z m 274 284 l 242 83 q 282 92 308 122 q 334 151 334 200 q 334 249 274 284 z"},"<":{"x_min":0,"x_max":528,"ha":528,"o":"m 47 260 l 56 312 l 467 493 l 484 442 l 131 286 l 435 129 l 402 79 z"},"'":{"x_min":0,"x_max":234,"ha":234,"o":"m 128 616 q 128 640 143 657 q 158 674 183 674 q 220 674 220 637 q 220 607 172 467 l 128 477 z"},"=":{"x_min":0,"x_max":528,"ha":528,"o":"m 34 187 l 42 240 l 472 240 l 464 187 z m 57 331 l 65 383 l 495 383 l 487 331 z"},"a":{"x_min":0,"x_max":526,"ha":526,"o":"m 397 99 l 394 77 q 394 62 414 62 q 434 62 466 81 l 476 49 q 411 -7 362 -7 q 328 -7 317 6 q 306 19 306 38 q 306 56 314 98 q 243 -7 170 -7 q 96 -7 68 40 q 40 86 40 168 q 40 250 66 318 q 92 387 145 432 q 198 478 259 478 q 320 478 376 452 l 427 476 l 456 462 z m 193 45 q 235 45 280 118 q 325 190 343 301 l 360 406 q 323 430 281 430 q 239 430 202 386 q 164 341 146 283 q 129 225 129 171 q 129 45 193 45 z"},"L":{"x_min":0,"x_max":523,"ha":523,"o":"m 210 88 q 210 70 224 64 q 239 57 277 57 l 374 57 q 407 96 434 169 q 446 171 452 171 q 459 171 475 169 l 438 0 l 26 0 l 32 37 q 85 44 117 63 l 204 604 q 172 623 118 630 l 123 667 l 392 667 l 387 630 q 323 622 292 604 l 214 115 q 210 93 210 88 z"},"3":{"x_min":0,"x_max":528,"ha":528,"o":"m 318 617 q 276 617 244 594 q 213 570 213 530 q 213 515 217 502 q 195 484 168 484 q 126 484 126 532 q 126 595 190 633 q 254 671 326 671 q 399 671 444 636 q 489 601 489 537 q 489 401 334 348 q 446 318 446 218 q 446 119 379 56 q 312 -7 213 -7 q 136 -7 86 21 q 35 49 35 107 q 35 142 54 162 q 73 182 100 182 q 127 182 147 166 q 131 134 131 108 q 131 81 155 64 q 179 46 225 46 q 285 46 320 94 q 356 142 356 202 q 356 325 209 325 l 216 369 q 298 371 346 415 q 395 459 395 538 q 395 617 318 617 z"},"J":{"x_min":0,"x_max":299,"ha":299,"o":"m 272 604 l 179 16 q 154 -145 -48 -195 l -54 -165 q 70 -114 88 1 l 184 604 q 152 623 97 630 l 102 667 l 362 667 l 356 630 q 305 624 272 604 z"},"V":{"x_min":0,"x_max":575,"ha":575,"o":"m 630 667 l 625 630 q 581 624 553 611 l 273 -7 q 239 -7 219 0 l 120 609 q 88 626 56 630 l 61 667 l 310 667 l 305 630 q 255 624 217 604 l 284 145 l 485 605 q 453 623 401 630 l 406 667 z"},"\"":{"x_min":0,"x_max":389,"ha":389,"o":"m 132 616 q 132 640 147 657 q 162 674 187 674 q 224 674 224 637 q 224 607 176 467 l 132 477 z m 292 616 q 292 640 307 657 q 322 674 347 674 q 384 674 384 637 q 384 607 336 467 l 292 477 z"},"7":{"x_min":0,"x_max":528,"ha":528,"o":"m 119 486 q 124 521 124 570 q 127 634 130 653 l 147 668 q 237 667 338 667 l 548 668 l 559 625 l 207 0 l 118 0 l 460 594 l 198 594 q 172 541 160 486 q 154 484 144 484 q 135 484 119 486 z"},"S":{"x_min":0,"x_max":481,"ha":481,"o":"m 312 624 q 266 624 235 595 q 204 566 204 529 q 204 492 226 460 q 247 428 278 398 q 309 368 340 336 q 414 260 414 182 q 414 130 392 92 q 371 53 336 32 q 269 -7 187 -7 q 105 -7 22 44 l 66 208 q 89 208 112 201 q 106 167 106 136 q 106 105 111 83 q 148 46 215 46 q 261 46 292 74 q 323 103 323 142 q 323 182 290 224 q 258 266 220 300 q 181 335 148 383 q 116 431 116 476 q 116 569 181 622 q 246 675 332 675 q 376 675 420 665 q 463 655 486 639 l 448 488 q 418 478 404 485 q 404 494 404 512 q 405 529 404 538 q 404 546 404 558 q 403 578 394 600 q 384 609 358 616 q 332 624 312 624 z"},"}":{"x_min":0,"x_max":375,"ha":375,"o":"m 216 157 l 219 53 q 219 -28 159 -85 q 99 -142 18 -142 l 23 -109 q 84 -104 111 -54 q 138 -4 138 62 l 138 110 q 138 230 203 282 q 178 310 178 361 q 178 412 199 476 q 220 540 220 580 q 220 619 202 646 q 183 672 147 673 l 152 708 q 215 708 259 669 q 303 630 303 571 q 303 539 274 460 q 245 382 245 360 q 245 337 255 322 q 265 307 275 303 l 285 299 l 280 265 q 261 265 238 235 q 216 207 216 157 z"},"Z":{"x_min":0,"x_max":512,"ha":512,"o":"m 143 499 q 129 497 116 497 q 104 497 99 499 l 110 644 l 134 667 l 535 667 l 537 627 l 139 53 l 375 62 q 392 85 400 104 q 409 124 417 145 q 425 166 430 178 q 444 180 454 180 q 465 180 479 178 l 441 0 l 30 0 l 24 44 l 419 612 q 299 610 186 605 q 165 567 143 499 z"},"x":{"x_min":0,"x_max":449,"ha":449,"o":"m 109 65 q 109 40 146 37 l 141 0 l 0 0 l -10 19 q 17 71 116 171 l 178 234 l 120 367 q 107 398 94 406 q 80 413 52 413 l 47 446 l 152 475 l 177 453 l 247 290 q 329 374 329 401 q 329 428 297 434 l 297 467 l 430 467 l 446 449 q 450 445 408 396 q 367 347 320 300 l 266 246 l 336 86 q 346 65 351 64 q 356 62 368 62 q 380 62 412 81 l 422 49 q 357 -7 318 -7 q 291 -7 276 18 q 270 27 262 45 l 198 190 q 109 101 109 65 z"},")":{"x_min":0,"x_max":372,"ha":372,"o":"m 290 372 q 290 222 216 88 q 141 -47 4 -145 l -22 -117 q 88 -19 148 116 q 207 250 207 405 q 207 560 111 684 l 139 710 q 145 705 156 696 q 166 688 192 656 q 218 625 238 589 q 257 553 274 494 q 290 436 290 372 z"},"&":{"x_min":0,"x_max":659,"ha":659,"o":"m 191 386 q 122 420 122 501 q 122 582 179 626 q 236 670 323 670 q 492 670 492 565 q 492 529 474 508 q 456 486 429 486 q 416 486 404 496 q 391 506 386 518 q 407 543 407 562 q 407 631 328 631 q 277 631 242 595 q 208 559 208 504 q 208 467 232 440 q 256 413 310 412 l 305 364 q 226 354 180 308 q 133 261 133 192 q 133 123 176 88 q 218 53 280 53 q 343 53 392 73 q 441 93 478 132 q 533 192 533 283 q 533 319 524 361 q 482 348 457 324 q 432 301 432 275 q 432 264 436 251 q 412 253 398 268 q 384 284 384 308 q 384 371 508 405 q 559 419 584 442 q 610 465 610 486 q 610 507 588 523 q 607 556 634 556 q 642 556 650 554 q 688 541 688 490 q 688 453 662 427 q 637 401 571 377 q 581 334 581 288 q 581 242 566 194 q 539 106 464 49 q 389 -8 274 -8 q 159 -8 98 40 q 37 88 37 174 q 37 261 84 314 q 130 368 191 386 z"},"_":{"x_min":0,"x_max":371,"ha":371,"o":"m 366 -112 l -4 -112 l 4 -58 l 375 -58 z"},"v":{"x_min":0,"x_max":460,"ha":460,"o":"m 316 427 l 315 460 l 424 476 l 458 454 q 441 375 380 280 l 195 -7 q 161 -7 141 0 l 92 366 q 91 380 80 398 q 73 412 26 412 l 22 445 l 140 476 l 166 452 l 212 106 q 228 137 268 198 q 308 260 331 306 q 354 352 354 386 q 354 421 316 427 z"},"O":{"x_min":0,"x_max":622,"ha":622,"o":"m 274 40 q 375 40 442 152 q 508 265 508 446 q 508 536 481 582 q 454 627 394 627 q 292 627 226 514 q 160 400 160 220 q 160 40 274 40 z m 387 675 q 501 675 554 614 q 606 554 606 436 q 606 317 572 220 q 538 122 462 58 q 387 -7 277 -7 q 167 -7 114 54 q 61 114 61 234 q 61 375 112 486 q 167 605 268 650 q 322 675 387 675 z"},"(":{"x_min":0,"x_max":372,"ha":372,"o":"m 90 193 q 90 345 163 477 q 236 609 376 710 l 402 682 q 291 582 232 448 q 173 315 173 159 q 173 3 269 -119 l 241 -145 q 235 -140 224 -132 q 214 -123 188 -92 q 162 -60 142 -24 q 123 12 106 70 q 90 129 90 193 z"},"C":{"x_min":0,"x_max":540,"ha":540,"o":"m 167 213 q 167 130 196 90 q 226 51 277 51 q 359 51 472 141 l 504 98 q 434 43 378 18 q 323 -7 256 -7 q 171 -7 120 54 q 70 114 70 236 q 70 357 105 456 q 140 555 214 615 q 289 675 395 675 q 473 675 516 642 q 559 608 559 559 q 559 526 542 499 q 525 472 499 472 q 473 472 458 483 q 444 494 443 511 q 463 533 463 560 q 463 586 443 604 q 423 623 385 624 q 280 623 224 503 q 167 383 167 213 z"},"W":{"x_min":0,"x_max":896,"ha":896,"o":"m 335 667 l 330 630 q 280 624 242 604 l 270 150 l 510 649 q 526 655 559 656 l 570 657 l 605 152 l 813 604 q 781 623 728 630 l 733 667 l 952 667 l 947 630 q 903 620 879 605 l 591 -7 q 556 -7 537 0 l 491 477 l 255 -7 q 220 -7 201 0 l 148 608 q 112 626 81 630 l 86 667 z"},"A":{"x_min":0,"x_max":588,"ha":588,"o":"m 298 0 l 304 37 q 363 44 394 63 l 399 63 l 376 215 l 190 215 l 124 62 q 156 45 219 37 l 214 0 l -21 0 l -16 37 q 35 45 57 60 l 329 667 l 394 667 l 496 62 q 519 45 567 37 l 563 0 z m 328 534 l 212 267 l 368 267 z"},"f":{"x_min":0,"x_max":292,"ha":292,"o":"m -70 -76 q -30 -76 -22 -112 q -39 -121 -39 -143 q -39 -171 -12 -171 q 29 -171 44 -116 q 54 -80 60 -17 q 67 46 71 70 l 126 413 l 52 413 l 58 447 l 134 467 l 143 513 q 178 697 313 697 q 358 697 390 674 q 421 650 421 615 q 421 580 402 560 q 383 540 359 540 q 324 540 314 576 q 338 594 338 612 q 338 650 294 650 q 248 650 234 600 q 224 563 222 518 q 220 473 219 462 l 315 462 l 308 413 l 211 413 l 155 59 q 140 -39 134 -58 q 127 -77 118 -104 q 109 -130 100 -142 q 92 -153 78 -172 q 64 -190 49 -198 q 34 -206 14 -212 q -7 -219 -40 -219 q -74 -219 -102 -198 q -129 -177 -129 -144 q -129 -110 -112 -93 q -94 -76 -70 -76 z"},"Q":{"x_min":0,"x_max":622,"ha":622,"o":"m 387 675 q 501 675 554 614 q 606 554 606 433 q 606 269 536 146 q 466 22 336 -2 q 346 -48 381 -84 q 416 -120 466 -138 q 464 -159 451 -168 q 301 -142 256 -6 q 61 5 61 234 q 61 375 112 486 q 167 605 268 650 q 322 675 387 675 z m 274 40 q 375 40 442 152 q 508 265 508 446 q 508 536 481 582 q 454 627 394 627 q 292 627 226 514 q 160 400 160 220 q 160 40 274 40 z"},"w":{"x_min":0,"x_max":728,"ha":728,"o":"m 344 474 l 420 474 l 473 106 q 608 318 608 388 q 608 422 577 427 l 576 460 l 685 476 l 719 454 q 701 373 641 280 l 455 -7 q 422 -7 402 0 l 363 269 l 191 -7 q 144 -2 139 0 l 89 366 q 85 397 68 404 q 56 409 24 412 l 20 445 l 137 476 l 163 452 l 209 107 q 303 263 331 343 q 344 381 344 474 z"},"-":{"x_min":0,"x_max":319,"ha":319,"o":"m 46 231 l 54 285 l 273 285 l 265 231 z"},"E":{"x_min":0,"x_max":568,"ha":568,"o":"m 541 516 q 526 511 516 511 q 507 511 497 513 q 495 579 472 614 l 288 614 l 248 363 q 332 365 355 368 q 394 371 420 434 l 452 434 l 421 239 l 390 239 q 390 262 382 282 q 373 302 364 306 q 356 311 344 312 l 240 316 l 199 57 l 393 57 q 426 94 453 169 q 465 171 472 171 q 478 171 494 169 l 458 0 l 17 0 l 22 37 q 81 44 112 63 l 198 604 q 165 624 112 630 l 117 667 l 556 667 z"},"s":{"x_min":0,"x_max":382,"ha":382,"o":"m 226 431 q 202 431 181 415 q 160 399 160 370 q 160 341 178 320 q 196 299 234 268 q 271 238 294 210 q 316 182 316 148 q 316 74 265 34 q 214 -7 144 -7 q 75 -7 12 35 l 42 156 l 83 149 q 81 129 81 104 q 81 79 100 60 q 118 41 166 41 q 188 41 210 57 q 232 73 232 108 q 232 125 226 134 q 219 143 216 148 q 212 153 203 162 q 194 170 190 174 q 172 192 154 207 q 135 222 120 238 q 106 253 93 280 q 80 306 80 334 q 80 403 127 440 q 174 476 240 476 q 306 476 368 442 l 335 329 l 295 329 q 296 342 296 365 q 296 388 285 410 q 274 431 226 431 z"},">":{"x_min":0,"x_max":528,"ha":528,"o":"m 481 312 l 472 260 l 61 79 l 44 130 l 397 286 l 93 443 l 126 493 z"},"l":{"x_min":0,"x_max":267,"ha":267,"o":"m 202 81 l 212 49 q 147 -7 97 -7 q 63 -7 52 6 q 41 19 41 40 q 41 78 90 380 l 107 480 q 127 602 127 613 q 127 655 50 663 l 55 696 l 200 707 l 225 682 q 221 656 197 506 q 173 356 152 224 q 131 93 131 82 q 131 72 135 67 q 139 62 154 62 q 170 62 202 81 z"},"8":{"x_min":0,"x_max":528,"ha":528,"o":"m 44 136 q 44 243 148 322 q 169 339 193 352 q 122 395 122 469 q 122 558 184 614 q 247 671 330 671 q 414 671 456 636 q 498 601 498 544 q 498 433 375 363 q 422 337 448 302 q 475 268 475 215 q 475 114 406 54 q 338 -7 241 -7 q 144 -7 94 30 q 44 66 44 136 z m 384 196 q 384 230 370 246 q 357 262 351 269 q 345 276 326 286 q 308 296 302 300 q 297 303 272 314 q 248 324 244 326 q 135 260 135 144 q 135 96 162 69 q 190 42 246 42 q 301 42 342 86 q 384 130 384 196 z m 210 498 q 210 458 246 432 q 272 413 325 388 q 413 444 413 538 q 413 578 390 600 q 368 623 324 623 q 280 623 245 588 q 210 553 210 498 z"},"\\":{"x_min":0,"x_max":466,"ha":466,"o":"m 291 -125 l 110 671 l 169 692 l 350 -104 z"},"e":{"x_min":0,"x_max":457,"ha":457,"o":"m 423 370 q 423 296 340 246 q 257 195 131 195 l 131 172 q 131 108 155 76 q 179 45 220 45 q 276 45 357 106 l 386 69 q 355 38 305 16 q 255 -7 200 -7 q 117 -7 78 41 q 40 89 40 157 q 40 301 108 388 q 177 476 286 476 q 354 476 388 445 q 423 414 423 370 z m 279 430 q 224 430 186 378 q 149 326 136 244 q 225 244 280 280 q 335 316 335 372 q 335 396 320 413 q 306 430 279 430 z"},"b":{"x_min":0,"x_max":521,"ha":521,"o":"m 81 103 q 116 318 138 456 q 160 594 160 603 q 160 645 83 653 l 88 686 l 233 697 l 258 672 l 210 378 q 278 476 350 476 q 423 476 451 429 q 479 382 479 304 q 479 225 450 156 q 421 86 365 40 q 309 -7 247 -7 q 185 -7 150 2 q 116 10 106 14 q 95 17 86 28 q 76 40 76 54 q 76 68 81 103 z m 234 38 q 299 38 344 122 q 390 207 390 297 q 390 424 326 424 q 279 424 229 330 q 179 235 162 75 q 162 58 182 48 q 203 38 234 38 z"},"%":{"x_min":0,"x_max":858,"ha":858,"o":"m 137 -19 l 701 706 l 747 676 l 184 -49 z m 202 341 q 230 341 252 363 q 273 385 284 420 q 307 490 307 566 q 307 643 250 643 q 213 643 188 604 q 145 538 145 418 q 145 341 202 341 z m 196 302 q 80 302 80 435 q 80 547 128 614 q 176 682 256 682 q 372 682 372 550 q 372 438 324 370 q 276 302 196 302 z m 635 33 q 663 33 684 55 q 706 77 718 112 q 740 182 740 258 q 740 335 683 335 q 646 335 621 296 q 578 230 578 110 q 578 33 635 33 z m 629 -6 q 513 -6 513 127 q 513 239 561 306 q 609 374 689 374 q 805 374 805 242 q 805 130 757 62 q 709 -6 629 -6 z"},"m":{"x_min":0,"x_max":799,"ha":799,"o":"m 46 0 q 105 369 105 384 q 105 400 90 406 q 75 412 41 412 l 36 445 l 172 476 l 197 451 l 187 359 q 252 476 345 476 q 401 476 430 447 q 458 418 458 364 q 524 476 613 476 q 667 476 696 448 q 726 420 726 369 q 726 352 722 329 l 685 107 q 680 82 680 77 q 680 62 700 62 q 719 62 751 81 l 761 49 q 696 -7 646 -7 q 612 -7 601 6 q 590 20 590 40 q 590 60 614 198 q 638 336 638 361 q 638 386 624 404 q 609 421 582 421 q 554 421 528 401 q 502 381 484 346 q 466 310 452 270 q 438 230 428 180 q 414 103 407 53 q 400 3 400 0 l 315 0 q 318 22 332 107 q 370 327 370 356 q 370 386 356 404 q 341 421 317 421 q 259 421 216 343 q 173 265 157 163 l 131 0 z"},"#":{"x_min":0,"x_max":619,"ha":619,"o":"m 271 5 l 335 174 l 211 174 l 142 -7 l 94 5 l 158 174 l 38 174 l 57 227 l 178 227 l 225 353 l 119 353 l 137 406 l 245 406 l 313 585 l 362 573 l 298 406 l 422 406 l 490 585 l 539 573 l 475 406 l 595 406 l 577 353 l 455 353 l 408 227 l 515 227 l 496 174 l 388 174 l 319 -7 z m 278 353 l 231 227 l 355 227 l 402 353 z"},",":{"x_min":0,"x_max":199,"ha":199,"o":"m 7 11 q 1 21 1 42 q 1 62 20 80 q 39 99 66 99 q 94 99 108 84 q 122 68 122 42 q 122 -10 86 -56 q 51 -103 -5 -135 l -26 -106 q 2 -87 19 -58 q 36 -30 36 -8 q 36 13 19 13 q 17 13 7 11 z"},"n":{"x_min":0,"x_max":535,"ha":535,"o":"m 46 0 q 105 369 105 384 q 105 400 90 406 q 75 412 41 412 l 36 445 l 172 476 l 197 451 l 187 359 q 252 476 345 476 q 399 476 428 448 q 458 420 458 369 q 458 349 442 259 q 413 96 413 84 q 413 71 416 66 q 420 62 436 62 q 451 62 483 81 l 493 49 q 428 -7 378 -7 q 344 -7 333 6 q 322 20 322 40 q 322 60 346 198 q 370 336 370 361 q 370 386 356 404 q 341 421 317 421 q 259 421 216 343 q 173 265 157 163 l 131 0 z"},"h":{"x_min":0,"x_max":530,"ha":530,"o":"m 136 603 q 136 645 59 653 l 64 686 l 209 697 l 234 672 l 183 359 q 250 476 341 476 q 395 476 424 448 q 454 420 454 369 q 454 358 449 327 l 407 84 q 407 62 427 62 q 447 62 479 81 l 489 49 q 424 -7 375 -7 q 341 -7 330 6 q 318 20 318 40 q 318 59 342 197 q 366 335 366 360 q 366 386 352 404 q 337 421 313 421 q 261 421 220 356 q 180 292 160 201 l 127 0 l 41 0 l 116 470 q 136 592 136 603 z"},"z":{"x_min":0,"x_max":450,"ha":450,"o":"m 106 469 l 284 467 q 357 467 425 469 l 436 433 l 119 46 l 288 46 q 311 79 337 155 l 388 149 l 361 21 l 338 -3 q 300 0 198 0 l 24 -4 l 13 38 l 330 421 l 167 421 q 147 400 127 329 l 74 328 l 83 448 z"},"B":{"x_min":0,"x_max":596,"ha":596,"o":"m 373 667 q 575 667 575 531 q 575 388 425 352 q 541 315 541 214 q 541 123 474 62 q 408 0 278 0 l 35 0 l 41 37 q 100 44 131 63 l 217 604 q 185 623 131 630 l 136 667 z m 309 327 l 261 327 l 223 90 q 222 87 222 81 q 222 64 237 56 q 252 49 291 49 q 364 49 408 92 q 451 136 451 214 q 451 268 416 298 q 380 327 309 327 z m 327 376 q 487 376 487 530 q 487 576 457 598 q 427 620 377 620 q 327 619 316 612 q 304 605 300 578 l 268 376 z"},"K":{"x_min":0,"x_max":603,"ha":603,"o":"m 15 0 l 21 37 q 74 44 105 63 l 192 604 q 161 623 106 630 l 111 667 l 356 667 l 351 630 q 312 626 282 612 l 194 63 q 227 44 284 37 l 280 0 z m 463 602 q 463 629 414 630 l 419 667 l 637 667 l 633 630 q 583 630 553 608 l 332 369 l 478 83 q 495 47 569 38 l 558 0 l 465 0 q 431 0 414 14 q 398 27 379 66 l 242 347 l 451 579 q 463 592 463 602 z"},"R":{"x_min":0,"x_max":590,"ha":590,"o":"m 345 667 q 547 667 547 523 q 547 365 388 322 q 420 303 440 236 l 484 80 q 493 46 568 38 l 557 0 l 470 0 q 433 0 416 13 q 400 26 390 69 l 355 219 q 341 279 324 292 q 307 306 245 306 l 226 306 l 188 62 q 220 44 278 37 l 273 0 l 9 0 l 14 37 q 68 44 100 63 l 186 604 q 153 624 100 630 l 105 667 z m 250 352 q 339 352 398 392 q 456 431 456 521 q 456 625 338 625 q 301 625 288 619 q 276 613 272 592 l 234 352 z"},"T":{"x_min":0,"x_max":574,"ha":574,"o":"m 98 670 l 341 667 l 608 670 l 582 501 q 574 499 562 499 q 551 499 537 501 q 538 508 538 524 q 538 575 520 611 q 486 613 392 615 l 304 62 q 334 46 404 37 l 399 0 l 115 0 l 121 37 q 184 43 215 62 l 304 615 q 225 615 169 613 q 129 562 116 501 q 100 499 89 499 q 78 499 72 501 z"},"P":{"x_min":0,"x_max":555,"ha":555,"o":"m 355 667 q 460 667 511 632 q 562 597 562 522 q 562 293 275 293 l 240 293 l 203 63 q 235 44 293 37 l 289 0 l 24 0 l 29 37 q 82 43 114 63 l 201 604 q 168 624 115 630 l 120 667 z m 363 625 q 311 625 300 616 q 290 608 287 589 l 247 338 l 275 338 q 367 338 420 385 q 472 432 472 520 q 472 625 363 625 z"},"|":{"x_min":0,"x_max":315,"ha":315,"o":"m 54 -146 l 197 754 l 263 754 l 120 -146 z"},"t":{"x_min":0,"x_max":345,"ha":345,"o":"m 143 90 q 143 55 178 55 q 213 55 288 106 l 312 72 q 281 47 263 34 q 245 22 209 8 q 173 -7 135 -7 q 97 -7 76 14 q 56 36 56 66 q 56 96 106 413 l 34 413 l 40 446 q 99 462 125 488 q 151 513 177 564 l 217 564 l 201 467 l 361 467 l 350 413 l 192 413 l 180 340 q 143 115 143 90 z"},"M":{"x_min":0,"x_max":792,"ha":792,"o":"m 372 0 l 318 0 l 198 512 l 134 63 q 167 44 224 37 l 220 0 l -20 0 l -15 37 q 38 43 70 63 l 156 604 q 123 624 71 630 l 76 667 l 249 667 l 376 116 l 678 667 l 839 667 l 834 630 q 783 624 749 604 l 663 63 q 696 44 753 37 l 749 0 l 485 0 l 490 37 q 543 44 575 63 l 653 512 z"},"g":{"x_min":0,"x_max":522,"ha":522,"o":"m -36 -113 q -36 -82 -16 -64 q 5 -45 32 -45 q 70 -45 83 -80 q 66 -94 66 -117 q 66 -140 86 -156 q 107 -173 149 -173 q 225 -173 263 -118 q 301 -64 318 36 l 328 97 q 258 -7 184 -7 q 111 -7 83 40 q 55 86 55 166 q 55 245 80 314 q 106 383 158 430 q 210 478 272 478 q 333 478 390 452 l 441 476 l 471 462 l 408 74 q 384 -77 318 -148 q 252 -219 134 -219 q 60 -219 12 -192 q -36 -164 -36 -113 z m 300 431 q 234 431 189 346 q 144 261 144 171 q 144 45 208 45 q 249 45 299 130 q 349 216 361 312 l 373 407 q 338 431 300 431 z"},"j":{"x_min":0,"x_max":266,"ha":266,"o":"m -38 -112 q -55 -121 -55 -143 q -55 -171 -27 -171 q 15 -171 30 -117 q 42 -70 48 -12 q 53 47 57 70 l 98 329 q 106 377 106 386 q 106 394 96 402 q 86 410 76 411 q 65 412 43 412 l 38 445 l 177 476 l 203 450 l 137 48 q 116 -86 92 -128 q 79 -150 60 -174 q 42 -197 15 -208 q -12 -219 -51 -219 q -90 -219 -118 -198 q -145 -176 -145 -143 q -145 -110 -126 -93 q -108 -76 -88 -76 q -68 -76 -54 -86 q -41 -95 -38 -112 z m 170 540 q 121 540 121 585 q 121 618 138 637 q 154 656 178 656 q 202 656 214 644 q 227 632 227 605 q 227 578 210 559 q 194 540 170 540 z"},"i":{"x_min":0,"x_max":271,"ha":271,"o":"m 106 379 q 106 400 92 406 q 77 412 43 412 l 38 445 l 180 476 l 205 451 q 147 103 147 87 q 147 71 150 66 q 154 62 170 62 q 185 62 217 81 l 227 49 q 162 -7 112 -7 q 78 -7 67 6 q 56 19 56 40 q 56 62 81 218 q 106 375 106 379 z m 172 540 q 123 540 123 585 q 123 618 140 637 q 156 656 180 656 q 204 656 216 644 q 229 632 229 605 q 229 578 212 559 q 196 540 172 540 z"},"y":{"x_min":0,"x_max":460,"ha":460,"o":"m 345 389 q 345 423 307 427 l 306 461 l 424 476 l 458 454 q 441 375 380 280 l 143 -83 q 134 -97 132 -114 q 132 -139 156 -139 q 167 -139 180 -132 q 192 -150 192 -169 q 192 -188 172 -204 q 152 -219 122 -219 q 93 -219 76 -204 q 58 -188 58 -165 q 58 -142 70 -114 q 90 -71 140 6 l 92 366 q 91 380 80 398 q 73 412 26 412 l 22 445 l 140 476 l 166 452 l 212 105 q 345 318 345 389 z"},"@":{"x_min":0,"x_max":885,"ha":885,"o":"m 588 124 q 588 75 628 75 q 677 75 719 166 q 761 258 761 364 q 761 471 698 536 q 635 602 506 602 q 349 602 241 476 q 133 350 133 180 q 133 58 200 -20 q 266 -97 385 -97 q 481 -97 550 -59 l 567 -94 q 483 -142 378 -142 q 220 -142 132 -58 q 44 26 44 172 q 44 298 102 406 q 161 513 270 579 q 378 645 513 645 q 673 645 762 566 q 850 487 850 356 q 850 226 772 127 q 694 28 597 28 q 514 28 514 117 q 514 133 516 145 q 450 33 379 33 q 308 33 282 76 q 256 118 256 190 q 256 263 280 326 q 303 389 351 432 q 399 476 458 476 q 516 476 566 452 l 617 476 l 646 462 l 596 182 q 588 142 588 124 z m 483 431 q 426 431 386 354 q 345 278 345 198 q 345 85 403 85 q 441 85 482 160 q 522 236 542 354 l 550 407 q 517 431 483 431 z"},"p":{"x_min":0,"x_max":527,"ha":527,"o":"m 129 -136 q 129 -167 190 -175 l 185 -212 l 46 -212 l 36 -193 l 125 379 q 125 400 110 406 q 95 412 61 412 l 56 445 l 188 476 l 213 451 l 204 366 q 274 476 350 476 q 425 476 453 429 q 481 382 481 297 q 481 181 420 87 q 358 -7 258 -7 q 199 -7 150 14 l 129 -130 q 129 -133 129 -136 z m 235 38 q 300 38 346 122 q 392 207 392 297 q 392 424 327 424 q 280 424 230 330 q 179 235 162 75 q 162 58 182 48 q 203 38 235 38 z"},"X":{"x_min":0,"x_max":545,"ha":545,"o":"m 427 0 q 393 0 378 14 q 363 27 347 66 l 260 282 l 100 63 q 133 44 190 37 l 186 0 l -52 0 l -46 37 q 8 44 35 61 l 238 336 l 139 584 q 121 629 60 630 l 65 667 l 168 667 q 191 667 197 661 l 205 653 q 207 651 210 644 q 214 636 216 632 q 218 628 222 617 q 226 606 229 600 l 307 408 l 436 604 q 403 624 350 630 l 355 667 l 587 667 l 582 630 q 534 624 502 606 l 329 353 l 439 83 q 449 62 465 52 q 481 42 520 38 l 514 0 z"},"*":{"x_min":0,"x_max":415,"ha":415,"o":"m 270 424 l 271 458 q 271 479 264 504 q 247 477 240 446 q 232 415 227 408 q 211 389 194 389 q 178 389 169 398 q 160 408 160 422 q 160 437 171 446 q 182 456 206 472 q 231 488 251 512 q 222 509 192 496 q 161 484 150 484 q 139 484 130 492 q 122 501 122 516 q 122 532 134 544 q 146 557 160 557 q 173 557 200 544 q 226 531 254 528 q 241 552 216 573 q 190 594 190 610 q 190 626 202 638 q 215 651 234 651 q 265 651 265 612 q 265 612 264 585 q 264 558 270 538 q 284 562 293 594 q 302 625 312 638 q 322 651 338 651 q 355 651 364 642 q 374 633 374 618 q 374 604 362 593 q 351 582 326 566 q 301 550 283 529 q 310 532 341 544 q 372 557 384 557 q 396 557 404 548 q 413 540 413 524 q 413 509 400 496 q 388 484 374 484 q 361 484 334 496 q 306 509 279 512 q 292 488 315 470 q 338 452 341 445 q 343 435 343 425 q 343 415 330 402 q 318 389 300 389 q 270 389 270 424 z"},"Y":{"x_min":0,"x_max":548,"ha":548,"o":"m 96 0 l 101 37 q 167 45 196 63 l 228 272 l 118 611 q 87 626 56 630 l 61 667 l 304 667 l 299 630 q 249 623 219 607 l 297 347 l 453 604 q 421 623 368 630 l 373 667 l 606 667 l 601 630 q 550 623 520 606 l 319 285 l 284 63 q 314 46 384 37 l 380 0 z"},"c":{"x_min":0,"x_max":433,"ha":433,"o":"m 210 -7 q 39 -7 39 162 q 39 336 138 427 q 192 476 259 476 q 326 476 368 450 q 410 423 410 374 q 410 346 392 324 q 374 302 352 302 q 308 302 304 338 q 320 363 320 383 q 320 431 277 431 q 216 431 172 350 q 128 269 128 171 q 128 116 152 80 q 175 45 222 45 q 248 45 280 58 q 313 72 332 86 l 351 100 l 378 63 q 353 38 302 16 q 252 -7 210 -7 z"},"/":{"x_min":0,"x_max":466,"ha":466,"o":"m 11 -112 l 452 699 l 505 678 l 63 -132 z"},"[":{"x_min":0,"x_max":339,"ha":339,"o":"m 229 -140 l 44 -140 l 178 709 l 364 709 l 359 676 l 249 666 l 128 -96 l 235 -106 z"},"6":{"x_min":0,"x_max":528,"ha":528,"o":"m 164 336 q 245 389 320 389 q 394 389 442 342 q 490 296 490 221 q 490 119 421 54 q 352 -12 256 -12 q 161 -12 110 45 q 60 102 60 206 q 60 389 162 510 q 265 631 461 671 l 471 628 q 213 567 164 336 z m 301 331 q 234 331 154 275 q 151 242 151 206 q 151 39 257 39 q 319 39 358 88 q 398 137 398 219 q 398 274 370 302 q 343 331 301 331 z"},"r":{"x_min":0,"x_max":407,"ha":407,"o":"m 51 0 q 109 369 109 384 q 109 400 94 406 q 79 412 45 412 l 40 445 l 179 476 l 204 451 l 190 354 q 251 476 322 476 q 359 476 380 452 q 400 429 400 400 q 400 370 382 349 q 364 328 336 328 q 308 328 299 345 q 306 362 306 386 q 306 409 288 409 q 254 409 214 339 q 175 269 158 145 l 139 0 z"},"2":{"x_min":0,"x_max":528,"ha":528,"o":"m 415 533 q 415 573 392 596 q 368 618 324 618 q 281 618 249 590 q 217 561 217 519 q 217 495 230 475 q 205 453 180 453 q 125 453 125 508 q 125 577 188 624 q 252 671 332 671 q 413 671 459 631 q 505 591 505 519 q 505 423 428 321 q 350 219 159 73 l 462 73 l 452 0 l 42 0 l 51 57 q 261 233 338 336 q 415 438 415 533 z"},"{":{"x_min":0,"x_max":375,"ha":375,"o":"m 171 409 l 168 513 q 168 594 228 651 q 288 708 369 708 l 364 675 q 303 670 276 620 q 249 570 249 504 l 249 456 q 249 336 184 284 q 209 256 209 205 q 209 154 188 90 q 167 26 167 -14 q 167 -53 186 -80 q 204 -106 240 -107 l 235 -142 q 172 -142 128 -103 q 84 -64 84 -5 q 84 27 113 106 q 142 184 142 206 q 142 229 132 244 q 122 259 112 263 l 102 267 l 107 301 q 126 301 150 331 q 171 359 171 409 z"},"9":{"x_min":0,"x_max":528,"ha":528,"o":"m 403 323 q 322 270 248 270 q 173 270 125 316 q 77 363 77 438 q 77 540 146 606 q 215 671 310 671 q 406 671 456 614 q 507 557 507 453 q 507 270 404 149 q 302 28 106 -12 l 96 31 q 354 92 403 323 z m 266 328 q 333 328 413 384 q 416 417 416 453 q 416 620 310 620 q 248 620 208 571 q 169 522 169 440 q 169 385 196 356 q 224 328 266 328 z"}," ":{"x_min":0,"x_max":220,"ha":220,"o":""},"I":{"x_min":0,"x_max":320,"ha":320,"o":"m 7 0 l 12 37 q 66 44 98 63 l 184 604 q 151 624 98 630 l 103 667 l 362 667 l 357 630 q 306 624 272 604 l 186 63 q 218 44 276 37 l 271 0 z"},"H":{"x_min":0,"x_max":669,"ha":669,"o":"m 6 0 l 11 37 q 64 44 96 63 l 182 604 q 149 624 96 630 l 101 667 l 355 667 l 350 630 q 305 624 270 604 l 232 369 l 487 369 l 525 604 q 489 624 440 630 l 444 667 l 698 667 l 692 630 q 647 624 613 604 l 527 63 q 560 44 618 37 l 613 0 l 354 0 l 359 37 q 406 43 439 63 l 479 315 l 224 315 l 184 63 q 217 44 269 37 l 265 0 z"},"4":{"x_min":0,"x_max":528,"ha":528,"o":"m 315 183 l 27 183 l 25 217 l 379 667 l 480 667 l 412 238 l 507 238 l 498 183 l 403 183 l 384 64 q 411 45 467 37 l 456 0 l 188 0 l 200 37 q 259 44 296 64 z m 108 238 l 324 238 l 379 586 z"},"~":{"x_min":0,"x_max":528,"ha":528,"o":"m 184 342 q 215 342 292 318 q 368 293 394 293 q 442 293 501 333 q 511 326 518 314 q 452 231 376 231 q 339 231 262 256 q 184 281 144 281 q 104 281 46 241 q 34 249 30 262 q 107 342 184 342 z"},"D":{"x_min":0,"x_max":646,"ha":646,"o":"m 333 667 q 471 667 544 611 q 617 555 617 431 q 617 226 516 113 q 415 0 228 0 l 21 0 l 26 37 q 87 45 116 62 l 202 604 q 170 623 117 630 l 122 667 z m 339 617 l 292 617 l 208 90 q 207 86 207 74 q 207 49 268 49 q 330 49 382 86 q 433 123 462 183 q 519 304 519 441 q 519 538 472 578 q 426 617 339 617 z"},"^":{"x_min":0,"x_max":528,"ha":528,"o":"m 298 674 l 350 674 l 480 356 l 426 331 l 313 604 l 113 331 l 66 356 z"},"F":{"x_min":0,"x_max":527,"ha":527,"o":"m 526 516 q 511 511 502 511 q 492 511 482 513 q 480 573 452 614 l 273 614 l 232 358 l 340 363 q 379 365 405 429 l 437 429 l 406 234 l 375 234 q 375 257 366 277 q 358 297 350 302 q 341 306 329 307 l 224 311 l 185 63 q 212 46 281 37 l 276 0 l 1 0 l 7 37 q 66 44 97 63 l 183 604 q 151 623 98 630 l 103 667 l 542 667 z"},"`":{"x_min":0,"x_max":271,"ha":271,"o":"m 82 607 q 63 624 63 640 q 63 656 76 668 q 89 681 106 681 q 124 681 134 664 l 199 548 l 173 524 z"},"k":{"x_min":0,"x_max":497,"ha":497,"o":"m 132 603 q 132 645 55 653 l 60 686 l 205 697 l 230 672 l 165 265 q 253 300 296 338 q 339 375 339 398 q 339 421 316 423 l 312 451 l 428 476 l 453 451 q 453 439 442 416 q 432 392 416 372 q 401 352 368 324 q 334 296 289 271 q 385 86 388 81 q 390 76 391 74 q 399 62 414 62 q 429 62 461 81 l 471 49 q 406 -7 367 -7 q 338 -7 324 18 q 319 26 311 45 l 221 237 q 188 222 156 211 l 123 0 l 37 0 l 112 470 q 132 592 132 603 z"},"u":{"x_min":0,"x_max":535,"ha":535,"o":"m 112 379 q 112 400 98 406 q 83 412 49 412 l 44 445 l 186 476 l 211 451 q 202 400 178 265 q 155 130 155 106 q 155 83 170 65 q 184 47 208 47 q 266 47 309 126 q 352 204 368 306 l 395 474 l 480 474 l 418 84 l 418 79 q 418 62 438 62 q 458 62 490 81 l 500 49 q 435 -7 386 -7 q 352 -7 341 6 q 330 19 330 34 q 330 50 341 116 q 274 -7 180 -7 q 126 -7 96 21 q 67 49 67 100 q 67 108 69 126 q 112 371 112 379 z"},"]":{"x_min":0,"x_max":339,"ha":339,"o":"m 119 709 l 304 709 l 170 -140 l -16 -140 l -11 -107 l 99 -97 l 220 665 l 113 675 z"},"U":{"x_min":0,"x_max":632,"ha":632,"o":"m 82 150 q 82 172 87 207 l 151 604 q 120 623 65 630 l 70 667 l 330 667 l 324 630 q 275 624 241 605 l 177 207 q 173 182 173 157 q 173 98 202 72 q 232 45 297 45 q 362 45 406 88 q 450 131 463 212 l 526 604 q 493 624 440 630 l 445 667 l 679 667 l 673 630 q 624 624 590 605 l 527 212 q 510 107 447 50 q 384 -7 282 -7 q 179 -7 130 31 q 82 69 82 150 z"},"o":{"x_min":0,"x_max":507,"ha":507,"o":"m 218 41 q 275 41 320 121 q 366 201 366 314 q 366 428 296 428 q 238 428 193 348 q 148 267 148 154 q 148 41 218 41 z m 218 -7 q 138 -7 96 38 q 55 82 55 164 q 55 291 119 384 q 183 476 296 476 q 376 476 418 432 q 459 387 459 305 q 459 177 395 85 q 331 -7 218 -7 z"},"N":{"x_min":0,"x_max":671,"ha":671,"o":"m 251 667 l 480 193 l 545 604 q 514 623 460 630 l 464 667 l 700 667 l 695 630 q 644 624 610 604 l 514 0 l 473 0 l 226 510 l 154 63 q 188 44 245 37 l 241 0 l 0 0 l 6 37 q 58 43 90 62 l 177 604 q 145 623 92 630 l 97 667 z"},"+":{"x_min":0,"x_max":528,"ha":528,"o":"m 55 259 l 64 312 l 236 312 l 264 490 l 324 490 l 296 312 l 473 312 l 464 259 l 287 259 l 259 82 l 199 82 l 227 259 z"},"G":{"x_min":0,"x_max":585,"ha":585,"o":"m 275 -8 q 183 -8 126 49 q 70 106 70 232 q 70 357 105 456 q 140 555 214 615 q 289 675 395 675 q 473 675 516 642 q 559 608 559 559 q 559 526 542 499 q 525 472 499 472 q 473 472 458 483 q 444 494 443 511 q 463 533 463 560 q 463 586 442 605 q 422 624 385 624 q 314 624 263 564 q 167 451 167 213 q 167 49 289 49 q 349 49 390 71 q 416 85 420 107 l 441 236 q 400 249 343 254 l 349 296 l 531 296 l 490 55 q 395 -8 275 -8 z"},"q":{"x_min":0,"x_max":521,"ha":521,"o":"m 365 -136 q 365 -167 426 -175 l 421 -212 l 280 -212 l 270 -193 l 322 103 q 250 -7 175 -7 q 100 -7 72 40 q 44 87 44 166 q 44 245 70 314 q 95 382 148 430 q 200 478 262 478 q 325 478 381 452 l 432 476 l 461 462 l 365 -130 q 365 -133 365 -136 z m 198 45 q 239 45 284 116 q 328 188 347 298 l 365 406 q 327 431 290 431 q 224 431 179 346 q 134 261 134 171 q 134 45 198 45 z"},"d":{"x_min":0,"x_max":524,"ha":524,"o":"m 368 455 q 368 455 394 603 q 394 645 317 653 l 322 686 l 467 697 l 490 672 l 397 96 q 394 81 394 77 q 394 62 414 62 q 434 62 466 81 l 476 49 q 411 -7 363 -7 q 328 -7 317 6 q 306 19 306 38 q 306 56 314 98 q 243 -7 170 -7 q 96 -7 68 40 q 40 86 40 166 q 40 245 66 314 q 91 382 143 429 q 195 476 258 476 q 320 476 368 455 z m 193 45 q 235 45 280 118 q 325 190 343 301 l 360 406 q 322 431 285 431 q 219 431 174 346 q 129 261 129 171 q 129 45 193 45 z"},"1":{"x_min":0,"x_max":528,"ha":528,"o":"m 76 0 l 81 37 q 176 43 220 63 l 301 573 l 145 573 l 151 616 q 266 625 370 671 l 402 657 l 308 63 q 345 45 426 37 l 422 0 z"},"5":{"x_min":0,"x_max":528,"ha":528,"o":"m 196 670 q 279 668 363 668 q 447 668 496 669 l 514 655 l 496 596 l 227 596 l 194 384 q 252 410 307 410 q 389 410 436 362 q 483 315 483 234 q 483 129 410 60 q 338 -8 229 -8 q 151 -8 104 24 q 56 57 56 109 q 56 143 75 164 q 94 185 124 185 q 154 185 171 169 q 154 136 154 110 q 154 83 177 63 q 200 43 240 43 q 313 43 354 94 q 396 146 396 232 q 396 289 368 321 q 341 353 284 353 q 228 353 153 314 l 125 346 l 174 656 z"}}}
